<?xml version="1.0" encoding="UTF-8"?>
<!-- Generator: Adobe Illustrator 21.1.0, SVG Export Plug-In . SVG Version: 6.00 Build 0)  -->
<svg version="1.1" id="svg4086" inkscape:version="0.47 r22583" sodipodi:docname="Documento nuevo 8" xmlns:cc="http://creativecommons.org/ns#" xmlns:dc="http://purl.org/dc/elements/1.1/" xmlns:inkscape="http://www.inkscape.org/namespaces/inkscape" xmlns:rdf="http://www.w3.org/1999/02/22-rdf-syntax-ns#" xmlns:sodipodi="http://sodipodi.sourceforge.net/DTD/sodipodi-0.dtd" xmlns:svg="http://www.w3.org/2000/svg" xmlns="http://www.w3.org/2000/svg" xmlns:xlink="http://www.w3.org/1999/xlink" x="0px" y="0px" viewBox="0 0 473.3 473.3" style="enable-background:new 0 0 473.3 473.3;" xml:space="preserve">
<style type="text/css">
	.st0{fill:#06338E;}
	.st1{fill:#FFFFFF;}
</style>
<path class="st0" d="M423.3,473.3H50c-27.5,0-50-22.5-50-50V50C0,22.5,22.5,0,50,0h373.3c27.5,0,50,22.5,50,50v373.3  C473.3,450.8,450.8,473.3,423.3,473.3z"/>
<defs>
	
	
		<inkscape:perspective id="perspective4094" inkscape:persp3d-origin="372.04724 : 350.78739 : 1" inkscape:vp_x="0 : 526.18109 : 1" inkscape:vp_y="0 : 1000 : 0" inkscape:vp_z="744.09448 : 526.18109 : 1" sodipodi:type="inkscape:persp3d">
		</inkscape:perspective>
	
		<inkscape:perspective id="perspective4071" inkscape:persp3d-origin="0.5 : 0.33333333 : 1" inkscape:vp_x="0 : 0.5 : 1" inkscape:vp_y="0 : 1000 : 0" inkscape:vp_z="1 : 0.5 : 1" sodipodi:type="inkscape:persp3d">
		</inkscape:perspective>
</defs>
<sodipodi:namedview bordercolor="#666666" borderopacity="1.0" id="base" inkscape:current-layer="layer1" inkscape:cx="366.66592" inkscape:cy="-51.90555" inkscape:document-units="px" inkscape:pageopacity="0.0" inkscape:pageshadow="2" inkscape:window-height="467" inkscape:window-maximized="0" inkscape:window-width="550" inkscape:window-x="25" inkscape:window-y="25" inkscape:zoom="0.35" pagecolor="#ffffff" showgrid="false">
	</sodipodi:namedview>
<g id="layer1" transform="translate(16.665923,-7.124875)" inkscape:groupmode="layer" inkscape:label="Capa 1">
	<g id="g4051" transform="matrix(3.5433071,0,0,3.5433071,-1044.8221,-811.51651)">
		<path id="path92" class="st1" d="M357,362.2c35.6,0,64.4-28.8,64.4-64.4c0-35.6-28.8-64.4-64.4-64.4c-35.5,0-64.4,28.8-64.4,64.4    C292.6,333.4,321.4,362.2,357,362.2L357,362.2z"/>
		<path id="path94" class="st0" d="M357,355.2c31.7,0,57.4-25.7,57.4-57.4c0-31.7-25.7-57.4-57.4-57.4c-31.7,0-57.4,25.7-57.4,57.4    C299.6,329.5,325.3,355.2,357,355.2L357,355.2z"/>
		<path id="path96" class="st1" d="M357,347.5c27.4,0,49.7-22.2,49.7-49.7c0-27.4-22.2-49.7-49.7-49.7c-27.4,0-49.7,22.2-49.7,49.7    C307.3,325.3,329.5,347.5,357,347.5L357,347.5z"/>
		<g id="g3770" transform="matrix(2.6031132,0,0,2.6031132,-792.51884,-378.1566)">
			<path id="path98" class="st0" d="M426.9,271v-22.6h7.8c1.3,0,1.9,1.7,1.9,3.4v7c0,2-0.6,4.1-2.5,4.1l-3.7,0v8.2H426.9L426.9,271z     "/>
			<polygon id="polygon102" class="st0" points="443.6,271 443.1,268 439.1,268 438.6,271 434.9,271 438.9,248.4 443.4,248.4      447.3,271    "/>
			<polygon id="polygon106" class="st0" points="451,248.4 453.3,256.3 453.3,248.4 456.9,248.4 456.9,271 453.4,271 451.3,264.1      451.3,271 447.7,271 447.7,248.4    "/>
		</g>
		<path id="path100" class="st1" d="M332.4,296.7c1.6,0,1.8-1.7,1.8-3.3l0-12c0-2.1-0.7-3-1.8-3l-4.5,0v18.3H332.4L332.4,296.7    L332.4,296.7z"/>
		<polygon id="polygon104" class="st1" points="355.8,298.2 353.2,310.7 358.4,310.7   "/>
	</g>
</g>
</svg>