<?xml version="1.0" encoding="UTF-8" standalone="no"?>
<svg
   xmlns:dc="http://purl.org/dc/elements/1.1/"
   xmlns:cc="http://creativecommons.org/ns#"
   xmlns:rdf="http://www.w3.org/1999/02/22-rdf-syntax-ns#"
   xmlns:svg="http://www.w3.org/2000/svg"
   xmlns="http://www.w3.org/2000/svg"
   xmlns:sodipodi="http://sodipodi.sourceforge.net/DTD/sodipodi-0.dtd"
   xmlns:inkscape="http://www.inkscape.org/namespaces/inkscape"
   width="470.05093"
   height="470.8248"
   id="svg5414"
   version="1.1"
   inkscape:version="1.0.1 (3bc2e813f5, 2020-09-07)"
   sodipodi:docname="Partido_Nueva_Alianza_(México).svg">
  <defs
     id="defs5416">
    <inkscape:perspective
       sodipodi:type="inkscape:persp3d"
       inkscape:vp_x="0 : 526.18109 : 1"
       inkscape:vp_y="0 : 1000 : 0"
       inkscape:vp_z="744.09448 : 526.18109 : 1"
       inkscape:persp3d-origin="372.04724 : 350.78739 : 1"
       id="perspective5422" />
    <inkscape:perspective
       id="perspective5407"
       inkscape:persp3d-origin="0.5 : 0.33333333 : 1"
       inkscape:vp_z="1 : 0.5 : 1"
       inkscape:vp_y="0 : 1000 : 0"
       inkscape:vp_x="0 : 0.5 : 1"
       sodipodi:type="inkscape:persp3d" />
  </defs>
  <sodipodi:namedview
     id="base"
     pagecolor="#ffffff"
     bordercolor="#666666"
     borderopacity="1.0"
     inkscape:pageopacity="0.0"
     inkscape:pageshadow="2"
     inkscape:zoom="0.67965305"
     inkscape:cx="90.542895"
     inkscape:cy="280.80261"
     inkscape:document-units="px"
     inkscape:current-layer="layer1"
     showgrid="false"
     inkscape:window-width="1366"
     inkscape:window-height="705"
     inkscape:window-x="-8"
     inkscape:window-y="-8"
     inkscape:window-maximized="1"
     inkscape:document-rotation="0" />
  <metadata
     id="metadata5419">
    <rdf:RDF>
      <cc:Work
         rdf:about="">
        <dc:format>image/svg+xml</dc:format>
        <dc:type
           rdf:resource="http://purl.org/dc/dcmitype/StillImage" />
        <dc:title />
      </cc:Work>
    </rdf:RDF>
  </metadata>
  <g
     inkscape:label="Capa 1"
     inkscape:groupmode="layer"
     id="layer1"
     transform="translate(-114.97453,-296.94983)">
    <g
       id="g839">
      <path
         class="fil21 str0"
         d="m 162.27977,297.30125 h 375.44045 c 25.80311,0 46.95382,21.14979 46.95382,46.95474 v 376.21247 c 0,25.80587 -21.15071,46.95474 -46.95382,46.95474 H 162.27977 c -25.80495,0.003 -46.95382,-21.14607 -46.95382,-46.95102 V 344.25599 c 0,-25.80495 21.14887,-46.95474 46.95382,-46.95474 z"
         id="path167"
         style="fill:#00a4ac;fill-opacity:1;fill-rule:evenodd;stroke:none;stroke-width:0.70284" />
      <path
         sodipodi:nodetypes="ccccsccsccccccccsccccssscccccscccssscccccssscccccscsccccsccccccccccccccccssccccccccccsccscccsccccccccccccccccccscccccccccccccsccccccccccccccsssccccccccccccscccccccccccccccccccccccccccccccccccccc"
         id="rect4616"
         d="M 577.03127,728.66679 Z M 506.21877,324.4168 c -54.12529,1.13439 -136.86498,64.72251 -163.4687,107.24999 35.2975,-26.13342 66.09331,-48.48889 90.87499,-58.09369 28.05409,-10.87353 54.62142,-7.80162 33.68742,27.53117 -15.81222,26.69312 -54.65572,68.61792 -116.46872,121.06251 -14.71539,-48.3615 -57.23759,-69.8159 -106.5313,-58.96871 -46.85609,10.31103 -79.856,38.81832 -121.3437,100.125 43.5555,-43.64819 80.2857,-63.71688 111.43747,-61.78128 26.67731,1.65841 55.12773,18.29608 62.2812,71.6563 3.52669,26.30871 17.8722,30.52411 40.40635,18.5624 46.56079,-24.71829 85.68787,-58.7104 124.43744,-94.2812 65.8457,-60.43819 101.92497,-144.3937 73.93752,-164.9688 -8.01231,-5.8911 -18.01652,-8.32911 -29.25,-8.09369 z m -78.09371,282.24999 c -3.2339,0 -6.23887,1.14289 -8.4376,3.00001 -2.3759,2.00888 -3.84368,4.82468 -3.84368,7.96869 v 20.1876 h 7.0937 v -20.1876 c 0,-0.9101 0.49508,-1.773 1.2813,-2.43741 0.96318,-0.8156 2.34461,-1.31258 3.90628,-1.31258 1.56172,0 2.943,0.49677 3.90622,1.31258 0.78626,0.66451 1.25,1.5271 1.25,2.43741 v 17.37499 c 0,1.54591 1.23198,2.81261 2.75,2.81261 h 4.34378 v -20.1876 c 0,-3.14401 -1.46778,-5.95981 -3.84378,-7.96869 -2.19611,-1.85712 -5.17242,-3.00001 -8.40622,-3.00001 z m 17.59369,0 v 20.1875 c 0,3.1467 1.46782,5.95991 3.84371,7.96879 2.19621,1.8597 5.2037,3.00001 8.43761,3.00001 3.2338,0 6.20752,-1.14031 8.40621,-3.00001 2.376,-2.00888 3.84374,-4.82209 3.84374,-7.96879 v -20.1875 h -4.31256 c -1.51798,0 -2.78121,1.26659 -2.78121,2.8125 v 17.375 c 0,0.9101 -0.46357,1.7758 -1.25001,2.43751 -0.96321,0.81648 -2.3446,1.31248 -3.90621,1.31248 -1.56175,0 -2.94555,-0.4966 -3.90628,-1.31248 -0.78633,-0.66171 -1.28133,-1.52731 -1.28133,-2.43751 v -20.1875 h -7.0937 z m 41.18751,0 c -3.66537,0 -6.6999,1.38869 -9.09379,4.18748 -2.40679,2.79882 -3.59369,6.67612 -3.59369,11.62503 0,4.13018 0.895,7.5714 2.7187,10.28118 2.3118,3.39789 5.87148,5.06261 10.68758,5.06261 3.04111,0 5.57231,-0.73272 7.59369,-2.25 2.0267,-1.50151 3.49491,-3.70602 4.43753,-6.59381 l -7.28121,-1.31248 c -0.39051,1.49358 -1.003,2.56989 -1.78129,3.25 -0.7864,0.67198 -1.7269,1.03127 -2.875,1.03127 -1.6773,0 -3.11982,-0.66359 -4.25002,-1.9688 -1.13011,-1.29217 -1.69859,-3.13037 -1.75004,-5.46877 h 18.34373 c 0.0981,-6.05002 -1.03287,-10.5338 -3.40618,-13.46872 -2.38631,-2.93219 -5.6301,-4.37499 -9.75001,-4.37499 z m 14.59382,0 11.25,31.1563 h 7.56237 l 11.21882,-31.1563 h -7.53119 l -7.4688,20.71871 -7.46883,-20.71871 z m 43.09366,0 c -5.15012,0 -9.63439,4.523 -9.74997,8.1563 h 6.78129 c 0.485,-1.43868 2.32051,-2.1122 4.4062,-2.09381 2.1397,0.0177 4.52052,0.76089 4.5,3.09381 -0.0283,2.75938 -4.22457,2.84811 -8.40621,3.62501 -4.48218,0.82938 -8.28127,3.1101 -8.28127,8.24999 v 1.09371 c 0,6.41109 4.82559,9.03129 9.3437,9.03129 h 2.28128 c 7.94722,0 11.75,-6.04499 11.75,-11.21882 v -11.96879 c 0,-4.12491 -5.23318,-7.96869 -9.2813,-7.96869 z m -57.25002,6.03131 c 1.4924,0 2.77221,0.5911 3.81252,1.78119 1.04252,1.1875 1.5704,2.92478 1.62504,5.21879 h -10.93756 c -0.0177,-2.15539 0.49104,-3.87478 1.53132,-5.125 1.04268,-1.25561 2.36848,-1.87498 3.96868,-1.87498 z m 63.18751,9.46868 v 4.09372 c 0,5.9664 -8.9713,6.96107 -9.68751,3.40629 -1.4282,-7.0756 6.53071,-4.84239 9.68751,-7.50001 z m -348.78118,2.7187 v 113.2188 h 20.6562 V 633.07307 c 0,-4.49897 -3.61322,-8.18759 -8.03122,-8.18759 z m 30.93739,0 v 18.34381 h 20.62499 v -10.15622 c 0,-4.49897 -3.61318,-8.18759 -8.03119,-8.18759 z m -76.18741,22.46882 c -15.3422,0 -28.6897,13.49139 -29.03131,24.31248 h 20.1875 c 1.45123,-4.28709 6.948,-6.24498 13.15623,-6.1875 6.3804,0.056 13.44178,2.3001 13.37499,9.25001 -0.0819,8.22639 -12.58172,8.4352 -25.06241,10.75001 -13.35409,2.47709 -24.65628,9.2684 -24.65628,24.59377 v 3.31243 c 0,19.12067 14.37158,26.9376 27.84369,26.9376 h 6.8438 c 23.69519,0 35,-18.0753 35,-33.50002 v -35.6563 c 0,-12.29641 -15.61252,-23.81248 -27.6875,-23.81248 z m 133.68742,0 c -15.33951,0 -28.65841,13.49139 -29.00002,24.31248 h 20.15631 c 1.44879,-4.28709 6.95048,-6.24498 13.1563,-6.1875 6.38029,0.056 13.44179,2.3001 13.375,9.25001 -0.0819,8.22639 -12.58179,8.4352 -25.0626,10.75001 -13.3566,2.47709 -24.62499,9.2684 -24.62499,24.59377 v 3.31243 c 0,19.12067 14.3403,26.9376 27.81259,26.9376 h 6.84368 c 23.6952,0 35.00001,-18.0753 35.00001,-33.50002 v -35.6563 c 0,-12.29641 -15.58141,-23.81248 -27.65629,-23.81248 z m 79.0313,0 c -9.41903,0 -18.10173,3.37189 -24.50002,8.7812 -6.91458,5.84348 -11.18749,14.03529 -11.18749,23.18758 v 58.7812 h 20.62498 v -58.7812 c 0,-2.6471 1.43533,-5.16338 3.71881,-7.0938 2.80244,-2.36718 6.80241,-3.84378 11.34376,-3.84378 4.54114,0 8.54139,1.4766 11.34368,3.84378 2.28597,1.93042 3.71881,4.4467 3.71881,7.0938 v 50.59372 c 0,4.499 3.6107,8.18748 8.03115,8.18748 h 12.62502 v -58.7812 c 0,-9.15229 -4.30657,-17.3441 -11.21871,-23.18758 -6.3984,-5.40662 -15.08099,-8.7812 -24.49999,-8.7812 z m 150.99998,0 c -15.33961,0 -28.68711,13.49139 -29.0313,24.31248 h 20.1876 c 1.4513,-4.28709 6.95051,-6.24498 13.15619,-6.1875 6.3804,0.056 13.4392,2.3001 13.37503,9.25001 -0.0819,8.22639 -12.58172,8.4352 -25.06252,10.75001 -13.3566,2.47709 -24.65628,9.2684 -24.65628,24.59377 v 3.31243 c 0,19.12067 14.34029,26.9376 27.81259,26.9376 h 6.875 c 23.69509,0 34.99998,-18.0753 34.99998,-33.50002 v -35.6563 c 0,-12.29641 -15.6127,-23.81248 -27.68758,-23.81248 z m -107.62501,3.3125 v 12.84367 c 0,4.5017 3.6107,8.18763 8.03133,8.18763 h 31.7812 l -39.81253,45.37499 v 21.03119 h 70.0313 v -21.03119 h -39.78127 l 39.78127,-45.37499 v -21.0313 z m -179.90628,0.40627 v 87.03121 h 20.62499 v -78.87501 c 0,-4.49638 -3.61318,-8.1562 -8.03119,-8.1562 z m -58.5,42.50002 v 12.21871 c 0,17.78669 -26.7328,20.78628 -28.87501,10.1875 -4.26118,-21.0955 19.4715,-14.48592 28.87501,-22.40621 z m 133.71881,0 v 12.21871 c 0,17.78669 -26.76671,20.78628 -28.90623,10.1875 -4.26139,-21.0955 19.50272,-14.48592 28.90623,-22.40621 z m 230,0 v 12.21871 c 0,17.78669 -26.7328,20.78628 -28.87501,10.1875 -4.26122,-21.0955 19.4715,-14.48592 28.87501,-22.40621 z"
         style="fill:#ffffff;fill-opacity:1;fill-rule:evenodd;stroke:none;stroke-width:3.54331" />
    </g>
  </g>
</svg>
