<?xml version="1.0" encoding="utf-8"?>
<!-- Generator: Adobe Illustrator 21.1.0, SVG Export Plug-In . SVG Version: 6.00 Build 0)  -->
<svg version="1.1"
	 id="Capa_1" inkscape:export-filename="C:\xampp\htdocs\web-2016\static\img\logos\logo_pes.png" inkscape:export-xdpi="90" inkscape:export-ydpi="90" inkscape:version="0.91 r13725" sodipodi:docname="logo_pes.svg" xmlns:cc="http://creativecommons.org/ns#" xmlns:dc="http://purl.org/dc/elements/1.1/" xmlns:inkscape="http://www.inkscape.org/namespaces/inkscape" xmlns:rdf="http://www.w3.org/1999/02/22-rdf-syntax-ns#" xmlns:sodipodi="http://sodipodi.sourceforge.net/DTD/sodipodi-0.dtd" xmlns:svg="http://www.w3.org/2000/svg"
	 xmlns="http://www.w3.org/2000/svg" xmlns:xlink="http://www.w3.org/1999/xlink" x="0px" y="0px" viewBox="0 0 503.8 504.6"
	 style="enable-background:new 0 0 503.8 504.6;" xml:space="preserve">
<style type="text/css">
	.st0{fill:#F9F9F9;}
	.st1{fill:#632D79;}
	.st2{fill:#D41A23;}
	.st3{fill:#0A74B4;}
	.st4{fill:#626F77;}
</style>
<sodipodi:namedview  bordercolor="#666666" borderopacity="1" fit-margin-bottom="0" fit-margin-left="0" fit-margin-right="0" fit-margin-top="0" gridtolerance="10" guidetolerance="10" id="namedview57" inkscape:current-layer="g5" inkscape:cx="65.56158" inkscape:cy="176.45305" inkscape:pageopacity="0" inkscape:pageshadow="2" inkscape:window-height="705" inkscape:window-maximized="1" inkscape:window-width="1366" inkscape:window-x="1912" inkscape:window-y="141" inkscape:zoom="0.46354778" objecttolerance="10" pagecolor="#ffffff" showgrid="false">
	</sodipodi:namedview>
<g id="g3733" transform="matrix(3.7747008,0,0,3.7747008,-1825.7302,-838.73187)">
	<path id="path18" inkscape:connector-curvature="0" class="st0" d="M497.4,222.7h106c7.3,0,13.3,6,13.3,13.3v106.2
		c0,7.3-6,13.3-13.3,13.3h-106c-7.3,0-13.3-6-13.3-13.3V235.9C484.2,228.7,490.1,222.7,497.4,222.7L497.4,222.7z"/>
</g>
<g id="g5" transform="matrix(0.64913061,0,0,0.64913061,-814.8316,23.056056)">
	<g id="g7" transform="translate(1156.5187,3.3233295)">
		<path id="path9" inkscape:connector-curvature="0" class="st1" d="M370.9,210.3c18,56,68.1,86.8,117.4,86.5
			c48.2-0.3,97.9-30.7,115.5-86.2c11.6,33.3,5.1,88.5-37.2,124.6c-43.3,37-105,39.5-151,5.9C368.7,306.9,358.3,249.8,370.9,210.3
			L370.9,210.3z"/>
		<path id="path11" inkscape:connector-curvature="0" class="st1" d="M487.7,252.8c-33.6,0.1-60.9-26.9-61-60.3
			c-0.1-33.5,26.9-60.9,60.3-61.1c33.8-0.1,61.1,26.8,61.3,60.6C548.5,225.4,521.2,252.7,487.7,252.8z"/>
		<g id="g13">
			<path id="path15" inkscape:connector-curvature="0" class="st2" d="M191.7,208.7c23.4,71.3,109.7,93.5,164,42.8
				c0.8,4.5,1.3,8.7,2.2,12.9c1.9,9,4,17.8,7.1,26.4c1,2.8,0.7,4.7-1.2,6.7c-26.9,28.3-59,43.2-98.2,34.3
				c-39.4-8.9-64.5-34.2-74.9-73.4c-4.1-15.4-3.7-31,0-46.5C190.8,211.2,191.1,210.5,191.7,208.7L191.7,208.7z"/>
			<path id="path17" inkscape:connector-curvature="0" class="st2" d="M337.1,194.6c-0.6,28.1-23.1,49.5-51.1,48.9
				c-26.9-0.6-48.3-23.4-47.6-50.8c0.6-27.4,23.2-48.8,50.8-48.1C315.8,145.1,337.6,167.9,337.1,194.6z"/>
		</g>
		<g id="g19">
			<path id="path21" inkscape:connector-curvature="0" class="st3" d="M781.8,208.7c-23.4,71.3-109.7,93.5-164,42.8
				c-0.8,4.5-1.3,8.7-2.2,12.9c-1.9,9-4,17.8-7.1,26.4c-1,2.8-0.7,4.7,1.2,6.7c26.9,28.3,59,43.2,98.2,34.3
				c39.4-8.9,64.5-34.2,74.9-73.4c4.1-15.4,3.7-31,0-46.5C782.8,211.2,782.4,210.5,781.8,208.7L781.8,208.7z"/>
			<path id="path23" inkscape:connector-curvature="0" class="st3" d="M636.5,194.6c0.6,28.1,23.1,49.5,51.1,48.9
				c26.9-0.6,48.3-23.4,47.6-50.8c-0.6-27.4-23.2-48.8-50.8-48.1C657.7,145.1,635.9,167.9,636.5,194.6z"/>
		</g>
	</g>
	<g id="g25" transform="translate(1156.5187,3.3233295)">
		<path id="path27" inkscape:connector-curvature="0" class="st4" d="M254.8,438h-43.6c0.4,3.9,2.3,6.9,5.9,9.1
			c3.6,2.2,8,3.2,13.3,3.2c6.8,0,13-0.9,18.8-2.8l2.7,13.8c-6.8,2.9-14.9,4.3-24.4,4.3c-11.2,0-20-3-26.4-9
			c-6.4-6-9.6-14.2-9.6-24.5c0-9.5,3.1-17.7,9.2-24.6c6.1-6.9,14.4-10.4,24.7-10.4c9.6,0,17,3.1,22.2,9.2c5.3,6.2,7.9,14.1,7.9,23.7
			C255.6,433.2,255.3,435.9,254.8,438L254.8,438z M211.1,423.8h25.2c0-3.1-0.9-6-2.7-8.8c-1.8-2.8-4.9-4.2-9.2-4.2
			c-3.6,0-6.5,1.2-8.9,3.6C213.1,416.7,211.7,419.9,211.1,423.8L211.1,423.8z"/>
		<path id="path29" inkscape:connector-curvature="0" class="st4" d="M264.7,464.1v-44.5c0-6.5-0.2-13.5-0.5-21h18l0.9,9.2h0.5
			c4.9-7.1,11.8-10.7,20.8-10.7c7.4,0,13.2,2.5,17.6,7.5c4.4,5,6.5,12,6.5,21.1v38.5h-20.8v-35.8c0-9.7-3.6-14.6-10.9-14.6
			c-2.9,0-5.6,1.1-7.9,3.4c-2.3,2.2-3.5,5.4-3.5,9.5v37.5L264.7,464.1L264.7,464.1z"/>
		<path id="path31" inkscape:connector-curvature="0" class="st4" d="M390,447.2l2.5,15.1c-5,2.1-11.4,3.2-19.2,3.2
			c-10.8,0-19.4-3-25.9-9.1c-6.4-6.1-9.6-14.3-9.6-24.5c0-10.2,3.5-18.6,10.4-25.1c6.9-6.5,16.3-9.8,28.1-9.8c6,0,11.4,0.9,16.2,2.7
			l-3.4,15.3c-3.4-1.4-7.4-2.1-11.9-2.1c-5.4,0-9.8,1.7-13.1,5.1c-3.3,3.4-5,7.8-5,13.1c0,5.6,1.7,10,5.2,13.3
			c3.5,3.3,7.9,4.9,13.3,4.9C382.1,449.4,386.2,448.7,390,447.2L390,447.2z"/>
		<path id="path33" inkscape:connector-curvature="0" class="st4" d="M464.5,398.6v44.4c0,7,0.2,14.1,0.5,21.2h-18l-0.9-9.5h-0.5
			c-4.6,7.3-11.7,11-21,11c-7.5,0-13.3-2.4-17.5-7.3c-4.2-4.9-6.2-12-6.2-21.2v-38.5h20.8v35c0,10.3,3.6,15.4,10.7,15.4
			c3,0,5.6-1.1,7.9-3.3c2.3-2.2,3.5-5,3.5-8.4v-38.7L464.5,398.6L464.5,398.6z"/>
		<path id="path35" inkscape:connector-curvature="0" class="st4" d="M537.4,438h-43.6c0.4,3.9,2.3,6.9,5.9,9.1
			c3.6,2.2,8,3.2,13.3,3.2c6.8,0,13-0.9,18.8-2.8l2.7,13.8c-6.8,2.9-14.9,4.3-24.4,4.3c-11.2,0-20-3-26.4-9
			c-6.4-6-9.5-14.2-9.5-24.5c0-9.5,3.1-17.7,9.2-24.6c6.1-6.9,14.4-10.4,24.7-10.4c9.6,0,17,3.1,22.2,9.2c5.3,6.2,7.9,14.1,7.9,23.7
			C538.3,433.2,538,435.9,537.4,438L537.4,438z M493.8,423.8H519c0-3.1-0.9-6-2.7-8.8c-1.8-2.8-4.9-4.2-9.2-4.2
			c-3.6,0-6.5,1.2-8.9,3.6C495.8,416.7,494.3,419.9,493.8,423.8L493.8,423.8z"/>
		<path id="path37" inkscape:connector-curvature="0" class="st4" d="M547.4,464.1v-44.5c0-6.5-0.2-13.5-0.5-21h18l0.9,9.2h0.5
			c4.9-7.1,11.8-10.7,20.8-10.7c7.4,0,13.2,2.5,17.6,7.5c4.4,5,6.5,12,6.5,21.1v38.5h-20.8v-35.8c0-9.7-3.6-14.6-10.9-14.6
			c-2.9,0-5.6,1.1-7.9,3.4c-2.3,2.2-3.5,5.4-3.5,9.5v37.5L547.4,464.1L547.4,464.1z"/>
		<path id="path39" inkscape:connector-curvature="0" class="st4" d="M626.4,386.2l20.2-5.5v17.8h14.9v15.3h-14.9v23.1
			c0,4.3,0.6,7.4,1.9,9.1c1.3,1.8,3.4,2.6,6.3,2.6c2.7,0,4.8-0.2,6.3-0.7l0.1,15.7c-3.3,1.3-7.8,1.9-13.5,1.9
			c-6.3,0-11.4-1.9-15.3-5.6c-4-3.7-6-10.3-6-19.7v-26.4h-8.8v-15.3h8.8L626.4,386.2L626.4,386.2z"/>
		<path id="path41" inkscape:connector-curvature="0" class="st4" d="M670.5,464.1v-43.7c0-9.8-0.2-17.1-0.5-21.8h17.8l0.7,12.5h0.5
			c1.6-4.5,4.1-8,7.5-10.4c3.4-2.4,7-3.6,10.8-3.6c2.1,0,3.6,0.1,4.4,0.4v19.4c-1.7-0.4-3.6-0.7-5.6-0.7c-3.8,0-7.3,1.1-10.3,3.3
			c-3,2.2-4.5,6-4.5,11.5v33.1L670.5,464.1L670.5,464.1z"/>
		<path id="path43" inkscape:connector-curvature="0" class="st4" d="M785.3,430.6c0,10.7-3.4,19.2-10.1,25.5
			c-6.7,6.3-15.2,9.4-25.4,9.4c-10.3,0-18.7-3.1-25.3-9.3c-6.6-6.2-9.9-14.4-9.9-24.5c0-10.4,3.3-18.8,9.9-25.2
			c6.6-6.4,15.4-9.5,26.3-9.5c10.2,0,18.5,3.1,24.9,9.4C782.1,412.7,785.3,420.8,785.3,430.6z M735.9,431.4c0,5.8,1.3,10.5,3.8,14.1
			c2.5,3.6,5.9,5.4,10.2,5.4c4.2,0,7.5-1.8,10-5.3c2.5-3.5,3.8-8.3,3.8-14.3c0-5.7-1.2-10.4-3.6-14c-2.4-3.6-5.8-5.4-10.1-5.4
			c-4.4,0-7.9,1.8-10.4,5.5C737.2,420.9,735.9,425.6,735.9,431.4z"/>
		<path id="path45" inkscape:connector-curvature="0" class="st4" d="M374.4,564.8l2.2-7.2c4,2.4,8.1,3.6,12.3,3.6
			c3,0,5.4-0.6,7-1.9c1.6-1.3,2.5-3,2.5-5.2c0-2.1-0.7-3.7-2-5c-1.4-1.3-3.7-2.5-7.1-3.7c-9-3.1-13.4-7.7-13.4-13.8
			c0-4.1,1.6-7.6,4.8-10.4c3.2-2.8,7.4-4.2,12.7-4.2c4.9,0,9.1,1,12.5,3l-2.3,6.8c-3.4-2-6.9-2.9-10.5-2.9c-2.5,0-4.5,0.6-5.9,1.8
			c-1.4,1.2-2.2,2.8-2.2,4.7c0,1.7,0.6,3.2,1.8,4.3c1.2,1.2,3.8,2.5,7.7,3.8c4.7,1.7,8.1,3.7,10.1,6c2.1,2.3,3.1,5.2,3.1,8.7
			c0,4.4-1.7,8-5.1,10.8c-3.4,2.7-8,4.1-13.8,4.1C383.4,568.2,378.6,567.1,374.4,564.8L374.4,564.8z"/>
		<path id="path47" inkscape:connector-curvature="0" class="st4" d="M463.7,542.2c0,5.3-1.1,9.8-3.3,13.8c-2.2,3.9-5.3,7-9.2,9.1
			c-3.9,2.1-8.2,3.2-12.8,3.2c-7.1,0-13-2.3-17.7-7s-7-10.7-7-18.2c0-7.9,2.4-14.2,7.2-18.9c4.8-4.7,10.8-7,18.2-7
			c7.3,0,13.2,2.3,17.7,7C461.4,528.8,463.7,534.8,463.7,542.2L463.7,542.2z M423.4,542.8c0,5.4,1.4,9.8,4.3,13.3
			c2.9,3.5,6.4,5.2,10.8,5.2c4.4,0,8.1-1.8,11-5.3c2.9-3.5,4.4-8,4.4-13.5c0-5.1-1.4-9.4-4.1-13c-2.7-3.6-6.4-5.4-11.1-5.4
			c-4.7,0-8.5,1.8-11.2,5.3C424.8,533,423.4,537.4,423.4,542.8L423.4,542.8z"/>
		<path id="path49" inkscape:connector-curvature="0" class="st4" d="M507.9,558.2l1.5,7.1c-4.1,2-9,2.9-14.6,2.9
			c-7.5,0-13.6-2.3-18.3-6.9c-4.6-4.6-7-10.6-7-18c0-7.7,2.5-14,7.5-18.9c5-4.9,11.6-7.3,19.7-7.3c4.9,0,9.2,0.9,12.9,2.7l-2,7.2
			c-3.1-1.6-6.7-2.4-10.8-2.4c-5.4,0-9.6,1.7-12.9,5.1c-3.2,3.4-4.8,7.7-4.8,13c0,5.5,1.6,9.9,4.9,13.1c3.3,3.2,7.4,4.9,12.5,4.9
			C500.4,560.6,504.2,559.8,507.9,558.2L507.9,558.2z"/>
		<path id="path51" inkscape:connector-curvature="0" class="st4" d="M529.1,503.4c0,1.7-0.6,3.1-1.7,4.2c-1.1,1.1-2.6,1.7-4.4,1.7
			c-1.8,0-3.2-0.6-4.3-1.7c-1.1-1.1-1.7-2.6-1.7-4.2c0-1.6,0.6-3,1.7-4.2c1.1-1.1,2.6-1.7,4.4-1.7c1.7,0,3.1,0.6,4.3,1.7
			C528.6,500.3,529.1,501.7,529.1,503.4L529.1,503.4z M527.8,567.1h-9.4v-48.9h9.4V567.1z"/>
		<path id="path53" inkscape:connector-curvature="0" class="st4" d="M576.8,537.5v17.9c0,4.8,0.3,8.8,0.8,11.7H569l-1.1-6.3
			c-3.7,4.9-8.8,7.4-15.5,7.4c-4.6,0-8.4-1.4-11.2-4.1c-2.8-2.7-4.2-6.1-4.2-9.9c0-5.9,2.6-10.5,7.7-13.6c5.2-3.1,12.7-4.7,22.6-4.7
			V535c0-3.5-1-6.2-2.9-8.1c-1.9-1.9-4.7-2.9-8.5-2.9c-5,0-9.4,1.2-13.3,3.7l-2.1-6.2c4.7-3,10.3-4.4,16.9-4.4
			c6.4,0,11.2,1.8,14.4,5.3C575.2,525.9,576.8,530.9,576.8,537.5L576.8,537.5z M567.6,550.4v-8.1c-7.9,0-13.3,0.9-16.4,2.8
			c-3.1,1.9-4.6,4.5-4.6,7.8c0,2.6,0.8,4.6,2.3,6.1c1.5,1.5,3.6,2.2,6.1,2.2c3.6,0,6.6-1.1,9-3.3
			C566.4,555.7,567.6,553.2,567.6,550.4z"/>
		<path id="path55" inkscape:connector-curvature="0" class="st4" d="M589.6,567.1v-71.9h9.4v71.9H589.6z"/>
	</g>
</g>
</svg>
