<?xml version="1.0" encoding="UTF-8" standalone="no"?>
<!-- Created with Inkscape (http://www.inkscape.org/) -->

<svg
   xmlns:dc="http://purl.org/dc/elements/1.1/"
   xmlns:cc="http://creativecommons.org/ns#"
   xmlns:rdf="http://www.w3.org/1999/02/22-rdf-syntax-ns#"
   xmlns:svg="http://www.w3.org/2000/svg"
   xmlns="http://www.w3.org/2000/svg"
   xmlns:sodipodi="http://sodipodi.sourceforge.net/DTD/sodipodi-0.dtd"
   xmlns:inkscape="http://www.inkscape.org/namespaces/inkscape"
   width="469.349"
   height="470.12195"
   id="svg4028"
   version="1.1"
   inkscape:version="0.47 r22583"
   sodipodi:docname="Documento nuevo 6">
  <defs
     id="defs4030">
    <inkscape:perspective
       sodipodi:type="inkscape:persp3d"
       inkscape:vp_x="0 : 526.18109 : 1"
       inkscape:vp_y="0 : 1000 : 0"
       inkscape:vp_z="744.09448 : 526.18109 : 1"
       inkscape:persp3d-origin="372.04724 : 350.78739 : 1"
       id="perspective4036" />
    <inkscape:perspective
       id="perspective4021"
       inkscape:persp3d-origin="0.5 : 0.33333333 : 1"
       inkscape:vp_z="1 : 0.5 : 1"
       inkscape:vp_y="0 : 1000 : 0"
       inkscape:vp_x="0 : 0.5 : 1"
       sodipodi:type="inkscape:persp3d" />
  </defs>
  <sodipodi:namedview
     id="base"
     pagecolor="#ffffff"
     bordercolor="#666666"
     borderopacity="1.0"
     inkscape:pageopacity="0.0"
     inkscape:pageshadow="2"
     inkscape:zoom="0.35"
     inkscape:cx="647.53165"
     inkscape:cy="15.061019"
     inkscape:document-units="px"
     inkscape:current-layer="layer1"
     showgrid="false"
     inkscape:window-width="550"
     inkscape:window-height="467"
     inkscape:window-x="150"
     inkscape:window-y="150"
     inkscape:window-maximized="0" />
  <metadata
     id="metadata4033">
    <rdf:RDF>
      <cc:Work
         rdf:about="">
        <dc:format>image/svg+xml</dc:format>
        <dc:type
           rdf:resource="http://purl.org/dc/dcmitype/StillImage" />
        <dc:title></dc:title>
      </cc:Work>
    </rdf:RDF>
  </metadata>
  <g
     inkscape:label="Capa 1"
     inkscape:groupmode="layer"
     id="layer1"
     transform="translate(297.53165,-77.301255)">
    <g
       transform="matrix(3.5433071,0,0,3.5433071,-297.53165,-1238.3674)"
       style="fill-rule:evenodd"
       id="g4009">
      <path
         class="fil11 str0"
         d="m 13.251408,371.31093 105.957642,0 c 7.28221,0 13.25167,5.96894 13.25167,13.25167 l 0,106.17552 c 0,7.28325 -5.96946,13.25167 -13.25167,13.25167 l -105.957642,0 C 5.9686782,503.99057 -2.3112806e-8,498.02189 -2.3112806e-8,490.73916 l 0,-106.17656 C -2.3112806e-8,377.27987 5.9686782,371.31093 13.251408,371.31093 z"
         id="path61"
         style="fill:#da251d;stroke:none" />
      <path
         class="fil12 str0"
         d="m 64.441629,383.31128 -4.341472,13.16837 -12.662063,0 10.274227,8.17638 -4.087929,13.06034 10.708948,-7.88665 10.671983,7.77784 -3.835167,-13.20429 10.419221,-7.92284 -13.060079,0 -4.087669,-13.16915 0,0 z m 1.484295,42.7616 52.130726,0 0,16.02711 -17.72694,0 0,49.59868 -17.075902,0 0,-49.59868 -17.327884,0 0,-16.02711 0,0 z m -51.517432,0 c 0,21.99605 0,43.88355 0,65.91448 5.680253,0 11.360246,0 17.039198,0 0,-8.21257 0,-16.3879 0,-24.60021 4.413578,0 8.827157,0 13.240475,0 9.51516,-0.54248 17.148268,-9.00859 17.003535,-20.6216 -0.144993,-11.64893 -5.028954,-19.31874 -16.06251,-20.80148 -10.454623,7.9e-4 -20.765815,0.0729 -31.220698,0.10881 l 0,0 z m 17.040239,13.16915 c 0,4.91989 0,9.87674 0,14.79636 1.88101,0 3.798984,0 5.679993,0 5.96972,-0.10881 7.633369,-3.79898 7.670073,-6.98259 0,-3.18361 -1.266675,-7.59719 -7.814025,-7.81377 -1.846909,0 -3.691215,0 -5.536041,0 l 0,0 z"
         id="path63"
         style="fill:#eee500;stroke:none" />
    </g>
  </g>
</svg>
