<?xml version="1.0" encoding="UTF-8" standalone="no"?>
<svg xmlns:dc="http://purl.org/dc/elements/1.1/" xmlns:cc="http://creativecommons.org/ns#" xmlns:rdf="http://www.w3.org/1999/02/22-rdf-syntax-ns#" xmlns:svg="http://www.w3.org/2000/svg" xmlns="http://www.w3.org/2000/svg" xmlns:sodipodi="http://sodipodi.sourceforge.net/DTD/sodipodi-0.dtd" xmlns:inkscape="http://www.inkscape.org/namespaces/inkscape" version="1.1" id="svg2" width="500" height="500" viewBox="0 0 500 500" sodipodi:docname="Sin Partido.svg" inkscape:version="1.0.1 (3bc2e813f5, 2020-09-07)">
  <metadata id="metadata8">
    <rdf:RDF>
      <cc:Work rdf:about="">
        <dc:format>image/svg+xml</dc:format>
        <dc:type rdf:resource="http://purl.org/dc/dcmitype/StillImage"/>
        <dc:title/>
      </cc:Work>
    </rdf:RDF>
  </metadata>
  <defs id="defs6"/>
  <sodipodi:namedview pagecolor="#ffffff" bordercolor="#666666" borderopacity="1" objecttolerance="10" gridtolerance="10" guidetolerance="10" inkscape:pageopacity="0" inkscape:pageshadow="2" inkscape:window-width="1366" inkscape:window-height="705" id="namedview4" showgrid="false" inkscape:zoom="0.54641985" inkscape:cx="36.707767" inkscape:cy="227.8607" inkscape:window-x="-8" inkscape:window-y="-8" inkscape:window-maximized="1" inkscape:current-layer="g10" inkscape:document-rotation="0"/>
  <g inkscape:groupmode="layer" inkscape:label="Image" id="g10">
    <g id="g970" transform="scale(3.125)">
      <rect style="fill:#e6e6e6;fill-opacity:1;fill-rule:evenodd;stroke-width:0.619307;stroke-linecap:round;stroke-linejoin:round;paint-order:fill markers stroke" id="rect837" width="160" height="160" x="0" y="0" ry="15.572613"/>
      <g id="g954">
        <g id="g931">
          <path style="fill:#000000;fill-opacity:1;fill-rule:evenodd;stroke:#000000;stroke-width:0.0238595;stroke-linecap:round;stroke-linejoin:round;stroke-opacity:1;paint-order:fill markers stroke" d="m 26.278668,68.913869 c -0.08897,-0.0088 -0.361936,-0.03501 -0.606597,-0.05819 -1.516705,-0.143718 -3.526854,-0.656964 -5.209815,-1.330209 -0.89659,-0.358668 -1.729988,-0.742384 -1.712131,-0.788306 0.05051,-0.129906 1.364536,-3.379781 1.409756,-3.486645 l 0.05355,-0.126558 0.448981,0.249821 c 1.168991,0.650446 2.90762,1.228819 4.497946,1.496288 0.495368,0.08331 0.756505,0.104328 1.294072,0.104138 1.300964,-4.61e-4 2.061519,-0.206001 2.581312,-0.6976 0.278322,-0.263224 0.444189,-0.599229 0.525715,-1.064963 0.116292,-0.664338 -0.03728,-1.196174 -0.462164,-1.600521 -0.413917,-0.393909 -0.938749,-0.642576 -2.456671,-1.163978 -3.172848,-1.089866 -5.037953,-2.074228 -6.151741,-3.246758 -0.355664,-0.374421 -0.505984,-0.591851 -0.709657,-1.026478 -0.59624,-1.272342 -0.573522,-3.277346 0.05284,-4.663492 0.272067,-0.602087 0.937752,-1.419776 1.551392,-1.905641 1.118874,-0.885896 2.686454,-1.447492 4.630352,-1.658856 0.66299,-0.07209 2.34028,-0.0609 3.174521,0.02118 1.3212,0.129992 2.710937,0.416494 3.942877,0.812845 0.61372,0.197453 1.491085,0.528762 1.552097,0.586102 0.02006,0.01886 -0.286622,0.838797 -0.702686,1.878653 -0.613447,1.533174 -0.749395,1.840712 -0.803961,1.818704 -2.717338,-1.095982 -5.405609,-1.502729 -6.920142,-1.047048 -0.854317,0.25704 -1.415823,0.829152 -1.540529,1.569627 -0.132856,0.788872 0.152802,1.367041 0.892555,1.80652 0.368887,0.219152 1.310178,0.615578 2.144178,0.903025 2.220737,0.765401 3.327764,1.195219 4.081352,1.584642 1.358353,0.70194 2.051143,1.315104 2.523372,2.233349 0.22905,0.445385 0.402982,0.967122 0.494791,1.484201 0.101433,0.571284 0.104959,1.845736 0.0065,2.332655 -0.19814,0.979414 -0.600988,1.793502 -1.254235,2.534604 -1.10724,1.256151 -2.700501,2.039635 -4.78008,2.350597 -0.542756,0.08116 -2.11049,0.141641 -2.547704,0.09829 z" id="path878"/>
          <path style="fill:#000000;fill-opacity:1;fill-rule:evenodd;stroke:#000000;stroke-width:0.0238595;stroke-linecap:round;stroke-linejoin:round;stroke-opacity:1;paint-order:fill markers stroke" d="M 50.715296,58.422898 V 48.191333 l 2.514564,0.01042 2.514564,0.01042 4.010902,6.220146 c 2.205996,3.42108 4.031599,6.240844 4.056897,6.266141 0.03437,0.03437 0.04599,-1.540766 0.04599,-6.230256 v -6.276251 h 2.527485 2.527485 v 10.23157 10.23157 l -2.475617,-0.01042 -2.475616,-0.01042 -0.810114,-1.234107 c -0.445563,-0.678758 -2.284143,-3.479648 -4.085734,-6.224199 l -3.275621,-4.990092 -0.01024,6.234309 -0.01024,6.234309 h -2.527357 -2.527356 z" id="path880"/>
          <path style="fill:#000000;fill-opacity:1;fill-rule:evenodd;stroke:#000000;stroke-width:0.0238595;stroke-linecap:round;stroke-linejoin:round;stroke-opacity:1;paint-order:fill markers stroke" d="M 39.87744,58.423204 V 48.191945 h 2.527485 2.527485 V 58.423204 68.654463 H 42.404925 39.87744 Z" id="path882"/>
        </g>
        <g id="g940">
          <path style="fill:#000000;fill-opacity:1;fill-rule:evenodd;stroke:#000000;stroke-width:0.0238595;stroke-linecap:round;stroke-linejoin:round;stroke-opacity:1;paint-order:fill markers stroke" d="M 18.817356,88.079707 V 77.828229 l 4.498923,1.38e-4 c 2.828536,8.7e-5 4.671593,0.01595 4.963981,0.04273 0.971889,0.08902 1.753103,0.304608 2.567924,0.708675 0.694954,0.344626 1.187802,0.701137 1.784232,1.290662 0.716673,0.708375 1.191942,1.395649 1.526801,2.207871 0.765197,1.856034 0.719644,4.261559 -0.114416,6.041839 -0.340395,0.726566 -0.771921,1.328499 -1.382853,1.928933 -1.023744,1.006153 -2.063868,1.563927 -3.505668,1.87994 l -0.491843,0.107802 -2.588144,0.02321 -2.588145,0.02321 -0.01036,3.123971 -0.01036,3.123971 h -2.325036 -2.325037 z m 8.916967,0.188863 c 0.430807,-0.117497 0.768982,-0.287839 1.108566,-0.558394 0.521856,-0.415775 0.950601,-1.070336 1.112093,-1.697821 0.235447,-0.914837 0.131516,-2.009215 -0.262787,-2.767115 -0.408303,-0.78481 -1.090947,-1.351031 -1.917432,-1.590419 -0.263766,-0.0764 -0.418959,-0.08298 -2.274737,-0.09648 l -1.991658,-0.01449 v 3.422929 3.422928 l 1.951218,-0.01645 c 1.851422,-0.01561 1.967765,-0.02096 2.274737,-0.104685 z" id="path884"/>
          <path style="fill:#000000;fill-opacity:1;fill-rule:evenodd;stroke:#000000;stroke-width:0.0238595;stroke-linecap:round;stroke-linejoin:round;stroke-opacity:1;paint-order:fill markers stroke" d="m 35.614309,98.300856 c -5.13e-4,-0.01668 1.549746,-4.629983 3.44502,-10.251782 l 3.445953,-10.221452 2.506344,0.01041 2.506344,0.01041 1.691065,4.99431 c 0.930086,2.74687 2.257782,6.668516 2.950437,8.714768 0.692654,2.046251 1.492682,4.407428 1.777839,5.247058 l 0.518468,1.526601 -2.35342,-1.84e-4 -2.353421,-1.83e-4 -0.709892,-2.294773 -0.709891,-2.294772 -3.317379,-0.01034 -3.31738,-0.01034 -0.592191,1.911012 c -0.325705,1.051056 -0.647777,2.088441 -0.715716,2.3053 l -0.123525,0.394287 h -2.323861 c -1.278123,0 -2.32428,-0.01365 -2.324794,-0.03033 z m 11.795113,-7.663334 c -0.01953,-0.07728 -1.889752,-6.218252 -2.254961,-7.404299 -0.06742,-0.218961 -0.129662,-0.391038 -0.138307,-0.382392 -0.0086,0.0086 -0.553833,1.761913 -1.211528,3.89615 -0.657694,2.134237 -1.203773,3.903179 -1.213507,3.930981 -0.01403,0.04008 0.485721,0.05055 2.411801,0.05055 h 2.4295 z" id="path886"/>
          <path style="fill:#000000;fill-opacity:1;fill-rule:evenodd;stroke:#000000;stroke-width:0.0238595;stroke-linecap:round;stroke-linejoin:round;stroke-opacity:1;paint-order:fill markers stroke" d="M 58.220304,88.077915 V 77.824643 l 4.94376,0.01489 c 4.847023,0.0146 4.952546,0.01658 5.392745,0.101137 1.465816,0.281577 2.656201,0.925857 3.658092,1.979895 0.89917,0.945968 1.403777,2.01895 1.597077,3.395977 0.07006,0.499081 0.08036,1.631814 0.01887,2.074673 -0.104239,0.750696 -0.383806,1.592442 -0.720189,2.168409 -0.604391,1.03486 -1.409641,1.792859 -2.43327,2.290489 -0.278922,0.135596 -0.512836,0.250344 -0.519807,0.254996 -0.007,0.0047 0.962066,1.848362 2.153417,4.097134 1.191351,2.248771 2.166093,4.097736 2.166093,4.10881 0,0.01107 -1.125126,0.02013 -2.50028,0.02013 H 69.476528 L 67.562337,94.691608 65.648146,91.05203 h -1.388635 -1.388635 v 3.639578 3.639578 H 60.54559 58.220304 Z m 9.080339,-0.84872 c 0.857857,-0.220447 1.494804,-0.825314 1.787204,-1.697192 0.101788,-0.303513 0.108601,-0.36978 0.110174,-1.071654 0.0016,-0.717796 -0.0031,-0.762577 -0.115041,-1.104237 -0.147176,-0.449025 -0.338009,-0.74346 -0.705941,-1.089191 -0.331918,-0.31189 -0.65125,-0.487769 -1.088784,-0.599671 -0.282008,-0.07212 -0.461769,-0.07812 -2.3412,-0.07812 h -2.035739 v 2.851003 2.851003 h 2.074151 c 1.730832,0 2.114046,-0.01025 2.315176,-0.06194 z" id="path888"/>
          <path style="fill:#000000;fill-opacity:1;fill-rule:evenodd;stroke:#000000;stroke-width:0.0238595;stroke-linecap:round;stroke-linejoin:round;stroke-opacity:1;paint-order:fill markers stroke" d="m 82.442955,89.939936 v -8.39125 h -2.749903 -2.749904 v -1.860228 -1.860229 h 7.845313 7.845313 v 1.860229 1.860228 h -2.770123 -2.770124 v 8.39125 8.39125 h -2.325286 -2.325286 z" id="path890"/>
          <path style="fill:#000000;fill-opacity:1;fill-rule:evenodd;stroke:#000000;stroke-width:0.0238595;stroke-linecap:round;stroke-linejoin:round;stroke-opacity:1;paint-order:fill markers stroke" d="M 96.394672,88.079707 V 77.828229 h 2.325286 2.325282 v 10.251478 10.251479 h -2.325282 -2.325286 z" id="path892"/>
          <path style="fill:#000000;fill-opacity:1;fill-rule:evenodd;stroke:#000000;stroke-width:0.0238595;stroke-linecap:round;stroke-linejoin:round;stroke-opacity:1;paint-order:fill markers stroke" d="M 106.51974,88.081552 V 77.828229 l 4.03387,4.17e-4 c 4.00629,4.14e-4 4.6049,0.01654 5.36838,0.144577 1.85184,0.310571 3.69697,1.284015 4.79439,2.529403 1.36799,1.552444 2.19454,3.398023 2.55125,5.696633 0.0793,0.510963 0.0913,0.747605 0.0931,1.840009 0.002,1.278968 -0.0175,1.541758 -0.18439,2.466825 -0.30758,1.704538 -0.97813,3.260014 -1.9757,4.583052 -0.36511,0.484233 -1.00659,1.139801 -1.43691,1.468458 -0.9501,0.72566 -2.15228,1.286934 -3.27562,1.529322 -1.04036,0.224485 -0.87957,0.217772 -5.59079,0.233415 l -4.37761,0.01454 z m 8.33059,6.390722 c 0.84188,-0.195831 1.48635,-0.544153 2.06332,-1.115178 1.105,-1.093609 1.69013,-2.672238 1.7987,-4.852771 0.0284,-0.570295 -0.0293,-1.568513 -0.12393,-2.143307 -0.24483,-1.487579 -0.80018,-2.676545 -1.65527,-3.54385 -0.56396,-0.572014 -1.15851,-0.912283 -1.92377,-1.101 -0.56823,-0.140129 -0.96554,-0.167482 -2.43272,-0.167482 h -1.40634 v 6.513573 6.513572 l 1.68836,-0.0165 c 1.42196,-0.0139 1.73621,-0.02763 1.99165,-0.08705 z" id="path894"/>
          <path style="fill:#000000;fill-opacity:1;fill-rule:evenodd;stroke:#000000;stroke-width:0.0238595;stroke-linecap:round;stroke-linejoin:round;stroke-opacity:1;paint-order:fill markers stroke" d="m 136.39964,98.566948 c -1.85811,-0.08893 -3.49801,-0.669056 -4.94781,-1.750312 -0.79438,-0.592449 -1.39061,-1.233621 -2.00195,-2.152867 -0.93787,-1.410223 -1.52189,-2.935054 -1.80926,-4.723833 -0.12171,-0.757576 -0.15217,-2.403829 -0.0595,-3.21496 0.30334,-2.654967 1.36333,-4.959592 3.05064,-6.63268 1.50912,-1.496403 3.38867,-2.308163 5.71096,-2.466506 1.78646,-0.121808 3.45588,0.206217 4.97921,0.978366 1.52597,0.773484 2.63775,1.836775 3.59566,3.438832 0.75024,1.254731 1.32805,2.960321 1.5382,4.540448 0.072,0.541711 0.0719,2.452081 -1.7e-4,2.992543 -0.1739,1.303477 -0.55591,2.591331 -1.11557,3.760897 -0.95488,1.995474 -2.33347,3.427613 -4.16344,4.325165 -1.44292,0.70771 -2.94642,0.99252 -4.77697,0.904907 z m 1.21319,-3.758411 c 0.95292,-0.116777 1.66862,-0.468312 2.30798,-1.133619 0.35753,-0.372038 0.57881,-0.6983 0.82945,-1.223009 0.53361,-1.117059 0.75503,-2.23643 0.79326,-4.010216 0.0306,-1.421039 -0.0496,-2.321682 -0.29398,-3.299633 -0.43792,-1.752566 -1.32829,-2.989236 -2.50995,-3.486187 -1.23814,-0.520701 -2.81683,-0.425925 -3.87182,0.232444 -1.17446,0.73292 -1.93772,2.148439 -2.25232,4.177092 -0.12038,0.77625 -0.15403,2.639153 -0.0632,3.497034 0.21894,2.06709 0.89353,3.623873 1.92596,4.444604 0.84096,0.668515 1.93564,0.948417 3.13459,0.80149 z" id="path896"/>
        </g>
      </g>
    </g>
  </g>
</svg>